<svg width="18" height="18" viewBox="0 0 18 18" xmlns="http://www.w3.org/2000/svg">
    <path d="M3.75 15.75c-.413 0-.766-.147-1.06-.44a1.444 1.444 0 0 1-.44-1.06V3.75c0-.413.147-.766.44-1.06.294-.293.647-.44 1.06-.44h10.5c.412 0 .766.147 1.06.44.293.294.44.647.44 1.06v10.5c0 .412-.147.766-.44 1.06-.294.293-.648.44-1.06.44H3.75zm0-1.5h10.5V3.75H3.75v10.5zm.75-1.5h9L10.687 9l-2.25 3L6.75 9.75l-2.25 3zm-.71 1.5V3.75v10.5zM6.376 7.5c.313 0 .578-.11.797-.328.219-.219.328-.484.328-.797 0-.313-.11-.578-.328-.797a1.085 1.085 0 0 0-.797-.328c-.313 0-.578.11-.797.328a1.085 1.085 0 0 0-.328.797c0 .313.11.578.328.797.219.219.484.328.797.328z" fill="#78909C" fill-rule="evenodd"/>
</svg>
