<svg width="32" height="32" viewBox="0 0 32 32" xmlns="http://www.w3.org/2000/svg">
    <g fill="none" fill-rule="evenodd">
        <circle fill="#ECEFF1" cx="16" cy="16" r="16"/>
        <path d="M24.953 13.424a.952.952 0 0 0-.824-.648l-5.195-.465-2.054-4.739A.957.957 0 0 0 16 7a.957.957 0 0 0-.88.573l-2.054 4.738-5.196.465a.954.954 0 0 0-.823.648.933.933 0 0 0 .28 1.002l3.927 3.394-1.158 5.027c-.085.37.06.752.372.973a.964.964 0 0 0 1.05.045L16 21.225l4.48 2.64a.965.965 0 0 0 1.051-.045.936.936 0 0 0 .372-.973l-1.158-5.027 3.927-3.394a.934.934 0 0 0 .281-1.002z" fill="#CFD8DC" fill-rule="nonzero"/>
    </g>
</svg>
