<!DOCTYPE svg PUBLIC "-//W3C//DTD SVG 1.1//EN" "http://www.w3.org/Graphics/SVG/1.1/DTD/svg11.dtd">
<!-- Uploaded to: SVG Repo, www.svgrepo.com, Transformed by: SVG Repo Mixer Tools -->
<svg fill="#ce1c1c" height="800px" width="800px" version="1.1" id="Layer_1" xmlns="http://www.w3.org/2000/svg" xmlns:xlink="http://www.w3.org/1999/xlink" viewBox="0 0 512 512" xml:space="preserve" stroke="#ce1c1c">
<g id="SVGRepo_bgCarrier" stroke-width="0"/>
<g id="SVGRepo_tracerCarrier" stroke-linecap="round" stroke-linejoin="round"/>
<g id="SVGRepo_iconCarrier"> <g> <g> <path d="M500.587,96.936H283.104c2.138,7.169,2.282,14.922,0.15,22.383c-0.042,0.149-0.098,0.293-0.143,0.442 c-4.179,14.013-15.679,24.642-30.011,27.669c-17.394,3.674-30.079,6.352-47.458,10.022v173.588 c0,6.303,5.109,11.412,11.412,11.412h86.931l-68.181,136.085c-4.235,8.453-0.816,18.738,7.637,22.973 c8.454,4.236,18.739,0.814,22.973-7.637l75.865-151.422h33.084l75.865,151.422c4.236,8.453,14.521,11.871,22.973,7.637 c8.453-4.235,11.873-14.521,7.638-22.973L413.658,342.45h86.93c6.303,0,11.412-5.109,11.412-11.412V108.348 C512,102.045,506.89,96.936,500.587,96.936z M450.96,260.714c-1.273,5.097-5.845,8.643-11.06,8.643h-31.952 c-6.303,0-11.412-5.109-11.412-11.412c0-6.303,5.11-11.412,11.412-11.412h4.402l-24.484-24.486l-49.951,1.469 c-3.131,0.095-6.183-1.115-8.405-3.337l-25.904-25.905l-41.143,11.855c-6.057,1.746-12.381-1.749-14.126-7.806 c-1.745-6.057,1.749-12.381,7.806-14.126l47.612-13.718c3.992-1.15,8.292-0.041,11.229,2.896l27.182,27.182l49.951-1.469 c3.135-0.095,6.183,1.115,8.405,3.337l27.966,27.966v-4.402c0-6.303,5.11-11.412,11.412-11.412 c6.303,0,11.412,5.109,11.412,11.412C451.313,260.41,451.442,258.781,450.96,260.714z"/> </g> </g> <g> <g> <path d="M258.445,94.172L182.59,21.415c-5.844-5.606-14.249-6.877-21.26-3.912c-7.21-5.73-16.12-8.831-25.305-8.831 c-9.66,0-18.53,3.372-25.51,8.993c-6.118-2.718-13.462-2.259-19.324,1.884L8.306,78.132c-5.889,4.163-9.023,11.216-8.167,18.376 c0.857,7.16,5.568,13.275,12.272,15.93l71.105,28.16l0.01,339.156c0,13.019,10.554,23.573,23.573,23.573 c13.019,0,23.573-10.553,23.573-23.573V291.33h10.178v188.423c0,13.019,10.555,23.573,23.573,23.573s23.573-10.553,23.573-23.573 c-0.001-182.8-0.429-156.376-0.429-339.232l61.337-12.952c7.124-1.504,12.831-6.824,14.83-13.825 C265.734,106.743,263.698,99.211,258.445,94.172z M167.748,104.928c-3.451,9.017-20.278,52.976-23.643,61.768l5.742-27.047 c0.403-1.9,0.11-3.88-0.825-5.581l-7.884-14.34l7.01-12.748c0.486-0.884,0.469-1.959-0.045-2.827s-1.448-1.401-2.457-1.401 h-19.238c-1.009,0-1.943,0.532-2.457,1.401s-0.53,1.943-0.044,2.827l7.009,12.748l-7.914,14.393 c-0.918,1.669-1.217,3.608-0.846,5.477l5.02,27.098c-4.849-12.434-18.737-49.865-24.079-63.566l-7.47,0.009l-35.01-13.867 L97.68,63.075c5.624,15.749,20.666,27.023,38.347,27.023c16.166,0,30.354-9.49,36.902-23.512l31.505,30.219 C167.888,104.522,170.172,103.905,167.748,104.928z"/> </g> </g> </g>
</svg>