<svg width="100" height="125" xmlns="http://www.w3.org/2000/svg" xml:space="preserve" enable-background="new 0 0 100 100" version="1.1">

 <g>
  <title>Layer 1</title>
  <g id="svg_1">
   <g id="svg_2">
    <g id="svg_3">
     <path id="svg_4" d="m50.463,59.902c-10.603,0 -19.228,-9.051 -19.228,-20.177l0,-9.702l1.779,0.008c0.017,0 0.031,0 0.048,0c5.251,0 5.829,-4.017 5.85,-4.188l0.159,-1.245l1.229,-0.263c3.793,-0.819 8.231,-0.142 13.164,2.015c6.881,3.015 11.8,3.655 15.032,1.975c3.039,-1.579 5.141,-5.414 6.588,-12.041c-2.912,-3.366 -17.785,-18.276 -39.862,-1.341l-0.689,0.322c-0.069,0.018 -2.215,0.585 -3.766,3.19c-1.952,3.283 -2.118,8.437 -0.471,14.902l-3.434,0.876c-1.931,-7.587 -1.617,-13.551 0.941,-17.726c1.897,-3.1 4.5,-4.234 5.518,-4.575c8.67,-6.573 17.314,-9.332 25.725,-8.219c12.057,1.61 19.064,10.644 19.355,11.026l0.488,0.641l-0.159,0.788c-1.683,8.266 -4.413,13.127 -8.604,15.303c-0.229,0.119 -0.461,0.23 -0.699,0.332l0.256,0l0,7.921c0.001,11.128 -8.621,20.178 -19.22,20.178zm-15.684,-26.438l0,6.261c0,9.171 7.037,16.632 15.684,16.632c8.643,0 15.676,-7.461 15.676,-16.632l0,-7.042c-3.717,0.457 -8.32,-0.559 -14.095,-3.086c-3.751,-1.639 -7.092,-2.304 -9.93,-1.971c-0.772,2.295 -2.901,5.229 -7.335,5.838z"/>
    </g>
   </g>
  </g>
  <g id="svg_5">
   <g id="svg_6">
    <g id="svg_7">
     <path id="svg_8" d="m31.729,44.707c-3.523,0 -6.39,-2.979 -6.39,-6.641c0,-3.663 2.867,-6.641 6.39,-6.641c0.7,0 1.274,0.182 1.735,0.329l1.232,0.393l0.083,1.323l0,10.497l-1.242,0.388c-0.555,0.173 -1.119,0.352 -1.808,0.352zm-0.494,-9.69c-1.333,0.256 -2.351,1.526 -2.351,3.05c0,1.522 1.018,2.793 2.351,3.049l0,-6.099z"/>
    </g>
   </g>
  </g>
  <g id="svg_9">
   <g id="svg_10">
    <g id="svg_11">
     <path id="svg_12" d="m69.327,44.707c-0.688,0 -1.253,-0.179 -1.706,-0.32l-1.24,-0.391l-0.104,-1.333l0,-10.492l1.236,-0.391c0.539,-0.173 1.114,-0.355 1.813,-0.355c3.524,0 6.394,2.979 6.394,6.641c0.001,3.663 -2.868,6.641 -6.393,6.641zm0.495,-9.69l0,6.099c1.336,-0.256 2.354,-1.526 2.354,-3.049c0,-1.524 -1.018,-2.795 -2.354,-3.05z"/>
    </g>
   </g>
  </g>
  <g id="svg_13">
   <g id="svg_14">
    <g id="svg_15">
     <polygon id="svg_16" points="50.244,71.141 38.241,63.605 38.241,55.276 41.785,55.276 41.785,61.646 50.244,66.957 58.715,61.645      58.715,55.276 62.259,55.276 62.259,63.607    "/>
    </g>
   </g>
  </g>
  <g id="svg_17">
   <g id="svg_18">
    <g id="svg_19">
     <path id="svg_20" d="m85.513,96.525l-41.406,0l0,-3.545l39.633,0l0,-13.238c0,-14.439 -23.333,-18.855 -23.568,-18.896l0.63,-3.489c1.083,0.195 26.483,4.989 26.483,22.386l0,15.027l-1.772,0l0,1.755z"/>
    </g>
   </g>
  </g>
  <g id="svg_21">
   <g id="svg_22">
    <g id="svg_23">
     <path id="svg_24" d="m55.896,96.525l-41.408,0l0,-1.755l-1.772,0l0,-15.028c0,-17.396 25.403,-22.19 26.487,-22.386l0.63,3.489c-0.235,0.041 -23.572,4.457 -23.572,18.896l0,13.239l39.636,0l0,3.545l-0.001,0z"/>
    </g>
   </g>
  </g>
  <g id="svg_25">
   <g id="svg_26">
    <g id="svg_27">
     <rect id="svg_28" height="14.113" width="3.545" y="80.656" x="27.195"/>
    </g>
   </g>
  </g>
  <g id="svg_29">
   <g id="svg_30">
    <g id="svg_31">
     <rect id="svg_32" height="14.113" width="3.543" y="80.656" x="69.75"/>
    </g>
   </g>
  </g>
  <g id="svg_33">
   <g id="svg_34">
    <g id="svg_35">
     <rect id="svg_36" height="3.543" width="14.479" y="85.941" x="14.488"/>
    </g>
   </g>
  </g>
  <g id="svg_37">
   <g id="svg_38">
    <g id="svg_39">
     <rect id="svg_40" height="3.543" width="14.479" y="85.941" x="71.033"/>
    </g>
   </g>
  </g>
  <g id="svg_41">
   <g id="svg_42">
    <g id="svg_43">
     <rect id="svg_44" height="3.544" width="7.78" y="75.848" x="56.593"/>
    </g>
   </g>
  </g>
  <g id="svg_45">
   <g id="svg_46">
    <g id="svg_47">
     <rect id="svg_48" height="3.544" width="7.78" y="80.406" x="56.593"/>
    </g>
   </g>
  </g>
  <g id="svg_49">
   <g id="svg_50">
    <g id="svg_51">
     <path id="svg_52" d="m22.176,75.605l-3.212,-1.503c4.34,-9.285 20.958,-12.497 21.665,-12.629l0.654,3.481c-0.156,0.031 -15.538,3.01 -19.107,10.651z"/>
    </g>
   </g>
  </g>
  <g id="svg_53">
   <g id="svg_54">
    <g id="svg_55">
     <path id="svg_56" d="m77.696,75.605c-3.571,-7.642 -18.95,-10.62 -19.106,-10.65l0.654,-3.481c0.706,0.132 17.32,3.344 21.664,12.629l-3.212,1.502z"/>
    </g>
   </g>
  </g>
 </g>
</svg>