<svg width="32" height="32" viewBox="0 0 32 32" xmlns="http://www.w3.org/2000/svg">
    <g fill="none" fill-rule="evenodd">
        <circle fill="#ECEFF1" cx="16" cy="16" r="16"/>
        <path d="M8.781 11.733a.942.942 0 0 1 1.359 0l2.038 2.095-1.13-4.388a.982.982 0 0 1 .678-1.196.95.95 0 0 1 1.164.697l1.25 4.887V8.086c0-.6.474-1.086 1.057-1.086.584 0 1.057.486 1.057 1.086l.302 5.431 1.486-4.725a.937.937 0 0 1 1.207-.586.978.978 0 0 1 .544 1.307l-1.124 4.625v2.805c.076-.005.151-.012.229-.012l2.415-2.793a1.256 1.256 0 0 1 1.811 0c.501.514.501 1.348.001 1.862l-4.456 4.58V25h-6.642v-1.241h4.83v-1.863h-4.83v-1.24l-.755-4.966-2.49-2.56a1.007 1.007 0 0 1 0-1.397z" fill="#FF8A65"/>
    </g>
</svg>
