<svg width="24" height="24" viewBox="0 0 24 24" xmlns="http://www.w3.org/2000/svg">
    <path d="M10.342 19.741c0 .972.741 1.759 1.658 1.759.917 0 1.658-.787 1.658-1.759h-3.316zM12 6.477c2.3 0 4.167 1.98 4.167 4.418v6.186H7.833v-6.186C7.833 8.456 9.7 6.477 12 6.477zM12 2.5c-.692 0-1.25.592-1.25 1.326V4.86c-2.617.6-4.583 3.075-4.583 6.035v5.303L4.5 17.965v.884h15v-.884l-1.667-1.767v-5.303c0-2.96-1.966-5.435-4.583-6.035V3.826c0-.734-.558-1.326-1.25-1.326z" fill="#FAFAFA" fill-rule="evenodd"/>
</svg>
